<svg width="15" height="15" viewBox="0 0 15 15" fill="none" xmlns="http://www.w3.org/2000/svg">
<path d="M7.49884 0C4.50338 0 2.06641 2.43697 2.06641 5.4324C2.06641 9.14982 6.9279 14.6072 7.13488 14.8377C7.3293 15.0543 7.66873 15.0539 7.86279 14.8377C8.06978 14.6072 12.9313 9.14982 12.9313 5.4324C12.9312 2.43697 10.4943 0 7.49884 0ZM7.49884 13.7616C5.8627 11.8181 3.04469 7.98375 3.04469 5.43246C3.04469 2.97639 5.04279 0.978281 7.49884 0.978281C9.95489 0.978281 11.953 2.97639 11.953 5.43243C11.953 7.98384 9.13539 11.8175 7.49884 13.7616Z" fill="#FFBE2E"/>
<path d="M7.49879 2.69919C5.9917 2.69919 4.76562 3.92529 4.76562 5.43238C4.76562 6.93947 5.99173 8.16558 7.49879 8.16558C9.00585 8.16558 10.2319 6.93947 10.2319 5.43238C10.2319 3.92529 9.00585 2.69919 7.49879 2.69919ZM7.49879 7.18729C6.53111 7.18729 5.74391 6.40006 5.74391 5.43238C5.74391 4.46471 6.53114 3.67747 7.49879 3.67747C8.46643 3.67747 9.25367 4.46471 9.25367 5.43238C9.25367 6.40006 8.46643 7.18729 7.49879 7.18729Z" fill="#FFBE2E"/>
</svg>
